# xmcd
#
# Track frame offsets:
# 150
# 14925
# 32925
# 48907
# 69757
# 87112
# 104587
# 114772
# 136372
# 155572
# 171915
# 196815
# 218460
# 236085
# 258442
#
# Disc length: 3693 seconds
#
#
# Revision: 2
# Processed by: cddbd v1.5.2PL0 Copyright (c) Steve Scherf et al.
# Submitted via: FreeRIP 2.96 
#
DISCID=ca0e6b0f
DTITLE=Black Sorrows, The [AUS] - Certified Blue
DYEAR=2014
DGENRE=Blues
TTITLE0=Roaring Town
TTITLE1=Certified Blue
TTITLE2=Can't Give Up on You
TTITLE3=Wake Me Up in Paradise
TTITLE4=Save Me
TTITLE5=Return of the Voodoo Sheiks
TTITLE6=Righteous Blues
TTITLE7=Lovers Waltz
TTITLE8=Man of Straw
TTITLE9=The Devil Came Knockin' on Sunday
TTITLE10=Big Heartache
TTITLE11=Until I Make You Mine
TTITLE12=Dear Lord
TTITLE13=Call Me a Fool
TTITLE14=The Gates of Hell
EXTD=Australia artist
EXTT0=
EXTT1=
EXTT2=
EXTT3=
EXTT4=
EXTT5=
EXTT6=
EXTT7=
EXTT8=
EXTT9=
EXTT10=
EXTT11=
EXTT12=
EXTT13=
EXTT14=
PLAYORDER=
